HIERARCHY
ROOT Hips
{
  OFFSET 5.72205e-005 65.662 3.42586
  CHANNELS 6 Xposition Yposition Zposition Zrotation Xrotation Yrotation
  JOINT Chest
  {
    OFFSET 0 8.7983 -4.7612
    CHANNELS 6 Xposition Yposition Zposition Zrotation Xrotation Yrotation
    JOINT Chest2
    {
      OFFSET 0 8.0291 0.4195
      CHANNELS 6 Xposition Yposition Zposition Zrotation Xrotation Yrotation
      JOINT Chest3
      {
        OFFSET 0 9.9351 -2.2114
        CHANNELS 6 Xposition Yposition Zposition Zrotation Xrotation Yrotation
        JOINT Neck
        {
          OFFSET 0 22.3885 -0.4656
          CHANNELS 6 Xposition Yposition Zposition Zrotation Xrotation Yrotation
          JOINT Head
          {
            OFFSET -0.0001 12.643 3.4389
            CHANNELS 6 Xposition Yposition Zposition Zrotation Xrotation Yrotation
            End Site
            {
              OFFSET 0.0001 17.6655 0.5274
            }
          }
        }
        JOINT LeftCollar
        {
          OFFSET 2.2603 21.606 7.4023
          CHANNELS 6 Xposition Yposition Zposition Zrotation Xrotation Yrotation
          JOINT LeftShoulder
          {
            OFFSET 13.5163 -1.1332 -5.0146
            CHANNELS 6 Xposition Yposition Zposition Zrotation Xrotation Yrotation
            JOINT LeftElbow
            {
              OFFSET -0.0995 -28.05 -0.2431
              CHANNELS 6 Xposition Yposition Zposition Zrotation Xrotation Yrotation
              JOINT LeftWrist
              {
                OFFSET 0.0679 -23.3996 -0.1402
                CHANNELS 6 Xposition Yposition Zposition Zrotation Xrotation Yrotation
                JOINT LeftFinger1
                {
                  OFFSET 0.7932 -9.069 2.5189
                  CHANNELS 6 Xposition Yposition Zposition Zrotation Xrotation Yrotation
                  JOINT LeftFinger11
                  {
                    OFFSET -0.8272 -3.3923 0.5977
                    CHANNELS 6 Xposition Yposition Zposition Zrotation Xrotation Yrotation
                    JOINT LeftFinger12
                    {
                      OFFSET -0.5649 -2.3158 0.4082
                      CHANNELS 6 Xposition Yposition Zposition Zrotation Xrotation Yrotation
                      End Site
                      {
                        OFFSET -0.4919 -1.6479 0.2673
                      }
                    }
                  }
                }
                JOINT LeftFinger2
                {
                  OFFSET 0.9159 -9.2044 0.2193
                  CHANNELS 6 Xposition Yposition Zposition Zrotation Xrotation Yrotation
                  JOINT LeftFinger21
                  {
                    OFFSET 0.0117 -4.1944 -0.0248
                    CHANNELS 6 Xposition Yposition Zposition Zrotation Xrotation Yrotation
                    JOINT LeftFinger22
                    {
                      OFFSET 0.0071 -2.3249 -0.0142
                      CHANNELS 6 Xposition Yposition Zposition Zrotation Xrotation Yrotation
                      End Site
                      {
                        OFFSET -0.1475 -2.0882 0.0028
                      }
                    }
                  }
                }
                JOINT LeftFinger3
                {
                  OFFSET 0.6113 -8.7231 -2.0637
                  CHANNELS 6 Xposition Yposition Zposition Zrotation Xrotation Yrotation
                  JOINT LeftFinger31
                  {
                    OFFSET -0.1927 -3.8059 -0.2383
                    CHANNELS 6 Xposition Yposition Zposition Zrotation Xrotation Yrotation
                    JOINT LeftFinger32
                    {
                      OFFSET -0.1091 -2.1688 -0.1362
                      CHANNELS 6 Xposition Yposition Zposition Zrotation Xrotation Yrotation
                      End Site
                      {
                        OFFSET -0.2358 -1.9176 -0.0906
                      }
                    }
                  }
                }
                JOINT LeftFinger4
                {
                  OFFSET -0.6151 -8.0947 -3.5641
                  CHANNELS 6 Xposition Yposition Zposition Zrotation Xrotation Yrotation
                  JOINT LeftFinger41
                  {
                    OFFSET -0.4882 -2.341 -0.6462
                    CHANNELS 6 Xposition Yposition Zposition Zrotation Xrotation Yrotation
                    JOINT LeftFinger42
                    {
                      OFFSET -0.3575 -1.7167 -0.4742
                      CHANNELS 6 Xposition Yposition Zposition Zrotation Xrotation Yrotation
                      End Site
                      {
                        OFFSET -0.4187 -1.5237 -0.3496
                      }
                    }
                  }
                }
                JOINT LeftFinger0
                {
                  OFFSET -1.42 -1.8761 1.4223
                  CHANNELS 6 Xposition Yposition Zposition Zrotation Xrotation Yrotation
                  JOINT LeftFinger01
                  {
                    OFFSET -1.1471 -3.4929 2.6334
                    CHANNELS 6 Xposition Yposition Zposition Zrotation Xrotation Yrotation
                    JOINT LeftFinger02
                    {
                      OFFSET -0.823 -2.3 1.6571
                      CHANNELS 6 Xposition Yposition Zposition Zrotation Xrotation Yrotation
                      End Site
                      {
                        OFFSET -0.5822 -1.6914 1.1582
                      }
                    }
                  }
                }
              }
            }
          }
        }
        JOINT RightCollar
        {
          OFFSET -2.2603 21.606 7.4023
          CHANNELS 6 Xposition Yposition Zposition Zrotation Xrotation Yrotation
          JOINT RightShoulder
          {
            OFFSET -13.5187 -1.1334 -5.0155
            CHANNELS 6 Xposition Yposition Zposition Zrotation Xrotation Yrotation
            JOINT RightElbow
            {
              OFFSET 0.0994 -28.0499 -0.2431
              CHANNELS 6 Xposition Yposition Zposition Zrotation Xrotation Yrotation
              JOINT RightWrist
              {
                OFFSET -0.0679 -23.3996 -0.1402
                CHANNELS 6 Xposition Yposition Zposition Zrotation Xrotation Yrotation
                JOINT RightFinger1
                {
                  OFFSET -0.7932 -9.0691 2.5189
                  CHANNELS 6 Xposition Yposition Zposition Zrotation Xrotation Yrotation
                  JOINT RightFinger11
                  {
                    OFFSET 0.8272 -3.3923 0.5977
                    CHANNELS 6 Xposition Yposition Zposition Zrotation Xrotation Yrotation
                    JOINT RightFinger12
                    {
                      OFFSET 0.565 -2.3158 0.4082
                      CHANNELS 6 Xposition Yposition Zposition Zrotation Xrotation Yrotation
                      End Site
                      {
                        OFFSET 0.4919 -1.6479 0.2673
                      }
                    }
                  }
                }
                JOINT RightFinger2
                {
                  OFFSET -0.916 -9.2044 0.2193
                  CHANNELS 6 Xposition Yposition Zposition Zrotation Xrotation Yrotation
                  JOINT RightFinger21
                  {
                    OFFSET -0.0117 -4.1944 -0.0248
                    CHANNELS 6 Xposition Yposition Zposition Zrotation Xrotation Yrotation
                    JOINT RightFinger22
                    {
                      OFFSET -0.0071 -2.3249 -0.0142
                      CHANNELS 6 Xposition Yposition Zposition Zrotation Xrotation Yrotation
                      End Site
                      {
                        OFFSET 0.1475 -2.0882 0.0028
                      }
                    }
                  }
                }
                JOINT RightFinger3
                {
                  OFFSET -0.6113 -8.7231 -2.0637
                  CHANNELS 6 Xposition Yposition Zposition Zrotation Xrotation Yrotation
                  JOINT RightFinger31
                  {
                    OFFSET 0.1927 -3.8059 -0.2383
                    CHANNELS 6 Xposition Yposition Zposition Zrotation Xrotation Yrotation
                    JOINT RightFinger32
                    {
                      OFFSET 0.1091 -2.1688 -0.1362
                      CHANNELS 6 Xposition Yposition Zposition Zrotation Xrotation Yrotation
                      End Site
                      {
                        OFFSET 0.2358 -1.9176 -0.0906
                      }
                    }
                  }
                }
                JOINT RightFinger4
                {
                  OFFSET 0.6151 -8.0947 -3.564
                  CHANNELS 6 Xposition Yposition Zposition Zrotation Xrotation Yrotation
                  JOINT RightFinger41
                  {
                    OFFSET 0.4882 -2.341 -0.6462
                    CHANNELS 6 Xposition Yposition Zposition Zrotation Xrotation Yrotation
                    JOINT RightFinger42
                    {
                      OFFSET 0.3574 -1.7166 -0.4742
                      CHANNELS 6 Xposition Yposition Zposition Zrotation Xrotation Yrotation
                      End Site
                      {
                        OFFSET 0.4187 -1.5237 -0.3496
                      }
                    }
                  }
                }
                JOINT RightFinger0
                {
                  OFFSET 1.4199 -1.8761 1.4221
                  CHANNELS 6 Xposition Yposition Zposition Zrotation Xrotation Yrotation
                  JOINT RightFinger01
                  {
                    OFFSET 1.1472 -3.4929 2.6336
                    CHANNELS 6 Xposition Yposition Zposition Zrotation Xrotation Yrotation
                    JOINT RightFinger02
                    {
                      OFFSET 0.8229 -2.3 1.6571
                      CHANNELS 6 Xposition Yposition Zposition Zrotation Xrotation Yrotation
                      End Site
                      {
                        OFFSET 0.5822 -1.6914 1.1582
                      }
                    }
                  }
                }
              }
            }
          }
        }
      }
    }
  }
  JOINT RightHip
  {
    OFFSET -9.412 3.9771 -0.7758
    CHANNELS 6 Xposition Yposition Zposition Zrotation Xrotation Yrotation
    JOINT RightKnee
    {
      OFFSET -0.7531 -40.938 0
      CHANNELS 6 Xposition Yposition Zposition Zrotation Xrotation Yrotation
      JOINT RightAnkle
      {
        OFFSET 0 -40.1986 0
        CHANNELS 6 Xposition Yposition Zposition Zrotation Xrotation Yrotation
        JOINT RightToe
        {
          OFFSET 0 -4.4182 9.239
          CHANNELS 6 Xposition Yposition Zposition Zrotation Xrotation Yrotation
          End Site
          {
            OFFSET 0 0 6.1981
          }
        }
      }
    }
  }
  JOINT LeftHip
  {
    OFFSET 9.4119 3.9773 -0.7758
    CHANNELS 6 Xposition Yposition Zposition Zrotation Xrotation Yrotation
    JOINT LeftKnee
    {
      OFFSET 0.7532 -40.9383 0
      CHANNELS 6 Xposition Yposition Zposition Zrotation Xrotation Yrotation
      JOINT LeftAnkle
      {
        OFFSET 0 -40.1986 0
        CHANNELS 6 Xposition Yposition Zposition Zrotation Xrotation Yrotation
        JOINT LeftToe
        {
          OFFSET 0 -4.4182 9.239
          CHANNELS 6 Xposition Yposition Zposition Zrotation Xrotation Yrotation
          End Site
          {
            OFFSET 0 0 6.1981
          }
        }
      }
    }
  }
}
MOTION
Frames:	4
Frame Time:	0.0333333
-1.08491 11.0652 -49.6105 -0.0370044 71.9967 0.0420106 2.22045e-016 8.7983 -4.7612 -0.104303 6.32291 -0.11047 0 8.0291 0.4195 -0.198081 12.646 -0.211226 2.22045e-016 9.9351 -2.2114 -0.198082 12.646 -0.211227 -3.33067e-016 22.3885 -0.4656 -9.21469e-007 -3.96753 -8.33667e-007 -0.0001 12.643 3.4389 3.08566e-007 -34.0849 2.71276e-007 2.2603 21.606 7.4023 -1.80347 -14.0378 11.6506 13.5163 -1.1332 -5.0146 92.1661 -51.2893 11.3672 -0.0995 -28.05 -0.2431 15.4381 -43.9257 14.6308 0.0679 -23.3996 -0.1402 55.9091 2.93576 9.42314 0.7932 -9.069 2.5189 3.18055e-015 6.36111e-015 -3.97569e-016 -0.8272 -3.3923 0.5977 4.77083e-015 0 2.78299e-015 -0.5649 -2.3158 0.4082 1.59028e-015 -3.18055e-015 -3.57812e-015 0.9159 -9.2044 0.2193 3.18055e-015 6.36111e-015 -3.97569e-016 0.0117 -4.1944 -0.0248 -0.0128161 0.00232351 9.66819e-005 0.0071 -2.3249 -0.0142 4.77083e-015 3.18055e-015 -1.59028e-015 0.6113 -8.7231 -2.0637 3.18055e-015 6.36111e-015 -3.97569e-016 -0.1927 -3.8059 -0.2383 -0.0160759 0.00300616 0.000874603 -0.1091 -2.1688 -0.1362 3.18055e-015 0 7.95139e-016 -0.6151 -8.0947 -3.5641 3.18055e-015 6.36111e-015 -3.97569e-016 -0.4882 -2.341 -0.6462 -0.0126251 0.00313375 0.00284358 -0.3575 -1.7167 -0.4742 -3.18055e-015 6.36111e-015 3.97569e-015 -1.42 -1.8761 1.4223 3.18055e-015 6.36111e-015 -3.97569e-016 -1.1471 -3.4929 2.6334 4.77083e-015 0 2.78299e-015 -0.823 -2.3 1.6571 1.59028e-015 -3.18055e-015 -3.57812e-015 -2.2603 21.606 7.4023 0.677462 -13.7392 -14.6262 -13.5187 -1.1334 -5.0155 -89.9865 -53.5213 -10.5297 0.0994 -28.0499 -0.2431 -21.3274 -51.2191 -19.578 -0.0679 -23.3996 -0.1402 -55.5429 7.74976 -3.3529 -0.7932 -9.0691 2.5189 3.19241e-006 -8.0586e-007 1.00751e-006 0.8272 -3.3923 0.5977 2.91489e-007 9.81046e-006 -5.99686e-006 0.565 -2.3158 0.4082 1.59028e-015 -3.18055e-015 -0 -0.916 -9.2044 0.2193 3.19241e-006 -8.0586e-007 1.00751e-006 -0.0117 -4.1944 -0.0248 0.0129244 0.00232556 -9.01272e-005 -0.0071 -2.3249 -0.0142 1.59028e-015 3.18055e-015 -1.59028e-015 -0.6113 -8.7231 -2.0637 3.19241e-006 -8.0586e-007 1.00751e-006 0.1927 -3.8059 -0.2383 0.0163251 0.00303858 -0.00087546 0.1091 -2.1688 -0.1362 0 3.18055e-015 -0 0.6151 -8.0947 -3.564 3.19241e-006 -8.0586e-007 1.00751e-006 0.4882 -2.341 -0.6462 0.0146072 0.0036941 -0.00326993 0.3574 -1.7166 -0.4742 -1.59028e-015 3.18055e-015 -1.59028e-015 1.4199 -1.8761 1.4221 3.19241e-006 -8.0586e-007 1.00751e-006 1.1472 -3.4929 2.6336 2.91489e-007 9.81046e-006 -5.99686e-006 0.8229 -2.3 1.6571 1.59028e-015 -3.18055e-015 -0 -9.412 3.9771 -0.7758 -46.5044 -28.5702 -62.421 -0.7531 -40.938 0 -32.3299 69.3555 -12.042 0 -40.1986 7.10543e-015 -21.2684 39.6319 28.6212 8.88179e-016 -4.4182 9.239 -5.69235e-006 -3.42101e-006 1.83272e-006 9.4119 3.9773 -0.7758 46.4875 -28.5767 62.3955 0.7532 -40.9383 -7.10543e-015 32.2848 69.3596 12.0721 0 -40.1986 0 21.2407 39.6499 -28.593 0 -4.4182 9.239 1.79729e-005 5.67949e-006 3.46556e-006 
-1.08491 11.0006 -49.5685 -0.0370045 71.9967 0.0420107 -2.22045e-016 8.7983 -4.7612 -0.104323 6.36934 -0.110342 0 8.0291 0.4195 -0.19807 12.7388 -0.210905 2.22045e-016 9.9351 -2.2114 -0.19807 12.7389 -0.210906 0 22.3885 -0.4656 -3.39042e-007 -5.28388 -3.68876e-007 -0.0001 12.643 3.4389 -2.79503e-007 -32.8006 -4.13729e-007 2.2603 21.606 7.4023 -1.70798 -14.1535 11.5531 13.5163 -1.1332 -5.0146 92.166 -51.2892 11.3672 -0.0995 -28.05 -0.2431 15.4382 -43.9259 14.6308 0.0679 -23.3996 -0.1402 55.9091 2.9358 9.42313 0.7932 -9.06901 2.5189 -3.18055e-015 0 3.97569e-016 -0.8272 -3.3923 0.5977 -8.82781e-032 3.18055e-015 1.59028e-015 -0.5649 -2.3158 0.4082 3.18055e-015 -3.18055e-015 -1.19271e-015 0.9159 -9.20441 0.2193 -3.18055e-015 0 3.97569e-016 0.0117 -4.1944 -0.0248 -0.0128188 0.00232187 8.85728e-005 0.0071 -2.3249 -0.0142 1.59028e-015 -6.36111e-015 -0 0.6113 -8.7231 -2.0637 -3.18055e-015 0 3.97569e-016 -0.1927 -3.8059 -0.2383 -0.0160336 0.00299799 0.000859521 -0.1091 -2.1688 -0.1362 -3.18055e-015 6.36111e-015 1.19271e-015 -0.6151 -8.0947 -3.5641 -3.18055e-015 0 3.97569e-016 -0.4882 -2.341 -0.6462 -0.0126058 0.00311803 0.00283039 -0.3575 -1.7167 -0.4742 1.59028e-015 -3.18055e-015 -2.78299e-015 -1.42 -1.8761 1.4223 -3.18055e-015 0 3.97569e-016 -1.1471 -3.4929 2.6334 -8.82781e-032 3.18055e-015 1.59028e-015 -0.823 -2.3 1.6571 3.18055e-015 -3.18055e-015 -1.19271e-015 -2.2603 21.606 7.4023 0.583617 -13.8713 -14.5673 -13.5187 -1.1334 -5.0155 -89.9862 -53.5211 -10.5295 0.0994 -28.0499 -0.2431 -21.3276 -51.2193 -19.5782 -0.0679 -23.3996 -0.1402 -55.5429 7.74973 -3.3529 -0.7932 -9.06911 2.5189 0 0 -1.19271e-015 0.8272 -3.3923 0.5977 0 0 -0 0.565 -2.3158 0.4082 6.62086e-032 3.18055e-015 -1.19271e-015 -0.916 -9.20441 0.2193 0 0 -1.19271e-015 -0.0117 -4.1944 -0.0248 0.0129521 0.00230508 -7.43646e-005 -0.0071 -2.3249 -0.0142 1.59028e-015 -3.18055e-015 1.59028e-015 -0.6113 -8.72311 -2.0637 0 0 -1.19271e-015 0.1927 -3.8059 -0.2383 0.0163407 0.00302168 -0.00085989 0.1091 -2.1688 -0.1362 0 0 -7.95139e-016 0.6151 -8.09471 -3.564 0 0 -1.19271e-015 0.4882 -2.341 -0.6462 0.0145708 0.00367064 -0.00325157 0.3574 -1.7166 -0.4742 -1.59028e-015 0 7.95139e-016 1.4199 -1.8761 1.4221 0 0 -1.19271e-015 1.1472 -3.4929 2.6336 0 0 -0 0.8229 -2.3 1.6571 6.62086e-032 3.18055e-015 -1.19271e-015 -9.412 3.9771 -0.7758 -46.4298 -28.3958 -62.333 -0.7531 -40.938 0 -32.3202 69.3505 -12.0526 0 -40.1986 -7.10543e-015 -21.2728 39.6333 28.6229 0 -4.4182 9.239 -1.30841e-005 1.63886e-006 7.93032e-006 9.4119 3.9773 -0.7758 46.4132 -28.4023 62.3075 0.7532 -40.9383 0 32.2751 69.3546 12.0827 0 -40.1986 0 21.2451 39.6514 -28.5947 -2.66453e-015 -4.4182 9.239 8.07302e-006 -3.52732e-006 -1.3664e-005 
-1.0849 10.9359 -49.5265 -0.0370043 71.9967 0.0420106 2.22045e-016 8.7983 -4.7612 -0.104343 6.41581 -0.110212 -2.22045e-016 8.0291 0.4195 -0.198057 12.8318 -0.210581 -2.22045e-016 9.9351 -2.2114 -0.198058 12.8319 -0.210581 -2.22045e-016 22.3885 -0.4656 2.36775e-007 -6.60462 2.02685e-007 -0.0001 12.643 3.4389 2.35799e-007 -31.5122 2.85539e-007 2.2603 21.606 7.4023 -1.61264 -14.2693 11.4558 13.5163 -1.1332 -5.0146 92.1661 -51.2892 11.3672 -0.0995 -28.05 -0.2431 15.4381 -43.9258 14.6308 0.0679 -23.3996 -0.1402 55.9091 2.93576 9.42317 0.7932 -9.069 2.5189 4.34975e-006 -7.26041e-007 3.09652e-006 -0.8272 -3.3923 0.5977 -1.76556e-031 -6.36111e-015 -1.59028e-015 -0.5649 -2.3158 0.4082 -1.59028e-015 -6.36111e-015 1.59028e-015 0.9159 -9.2044 0.2193 4.34975e-006 -7.26041e-007 3.09652e-006 0.0117 -4.1944 -0.0248 -0.0128038 0.00233015 8.52786e-005 0.0071 -2.3249 -0.0142 1.59028e-015 3.18055e-015 -3.97569e-016 0.6113 -8.7231 -2.0637 4.34975e-006 -7.26041e-007 3.09652e-006 -0.1927 -3.8059 -0.2383 -0.0160626 0.0029984 0.000859559 -0.1091 -2.1688 -0.1362 -3.18055e-015 -6.36111e-015 -1.59028e-015 -0.6151 -8.0947 -3.5641 4.34975e-006 -7.26041e-007 3.09652e-006 -0.4882 -2.341 -0.6462 -0.0125824 0.00313412 0.0028268 -0.3575 -1.7167 -0.4742 1.59028e-015 -3.18055e-015 -0 -1.42 -1.8761 1.4223 4.34975e-006 -7.26041e-007 3.09652e-006 -1.1471 -3.4929 2.6334 -1.76556e-031 -6.36111e-015 -1.59028e-015 -0.823 -2.3 1.6571 -1.59028e-015 -6.36111e-015 1.59028e-015 -2.2603 21.606 7.4023 0.489855 -14.0035 -14.5085 -13.5187 -1.1334 -5.0155 -89.9863 -53.5211 -10.5296 0.0994 -28.0499 -0.2431 -21.3275 -51.2193 -19.5781 -0.0679 -23.3996 -0.1402 -55.5428 7.74976 -3.35291 -0.7932 -9.0691 2.5189 -5.46508e-006 4.51232e-006 -4.23197e-006 0.8272 -3.3923 0.5977 -1.59629e-006 2.41426e-006 -4.98997e-007 0.565 -2.3158 0.4082 -2.51635e-006 5.63975e-009 1.73698e-006 -0.916 -9.2044 0.2193 -5.46508e-006 4.51232e-006 -4.23197e-006 -0.0117 -4.1944 -0.0248 0.0129264 0.00230143 -8.11874e-005 -0.0071 -2.3249 -0.0142 3.41256e-006 3.23716e-006 5.36091e-006 -0.6113 -8.7231 -2.0637 -5.46508e-006 4.51232e-006 -4.23197e-006 0.1927 -3.8059 -0.2383 0.016321 0.00304289 -0.000861982 0.1091 -2.1688 -0.1362 -4.09396e-006 8.36831e-006 -9.11552e-006 0.6151 -8.0947 -3.564 -5.46508e-006 4.51232e-006 -4.23197e-006 0.4882 -2.341 -0.6462 0.0145777 0.00368087 -0.00325478 0.3574 -1.7166 -0.4742 1.93509e-006 1.50904e-006 1.86643e-006 1.4199 -1.8761 1.4221 -5.46508e-006 4.51232e-006 -4.23197e-006 1.1472 -3.4929 2.6336 -1.59629e-006 2.41426e-006 -4.98997e-007 0.8229 -2.3 1.6571 -2.51635e-006 5.63975e-009 1.73698e-006 -9.412 3.9771 -0.7758 -46.3557 -28.2211 -62.2454 -0.7531 -40.938 -7.10543e-015 -32.3105 69.3454 -12.063 0 -40.1986 0 -21.2772 39.6347 28.6246 -1.77636e-015 -4.4182 9.239 1.44534e-005 -9.23123e-006 4.23259e-006 9.4119 3.9773 -0.7758 46.3394 -28.2277 62.22 0.7532 -40.9383 0 32.2655 69.3496 12.0931 0 -40.1986 0 21.2494 39.6528 -28.5964 8.88178e-016 -4.4182 9.239 4.55798e-006 -6.86559e-006 6.49377e-007 
-1.0849 10.8713 -49.4844 -0.0370045 71.9967 0.0420108 2.22045e-016 8.7983 -4.7612 -0.104362 6.46235 -0.11008 0 8.0291 0.4195 -0.198044 12.9249 -0.210252 4.44089e-016 9.9351 -2.2114 -0.198045 12.925 -0.210253 -1.11022e-016 22.3885 -0.4656 -3.01402e-007 -7.92951 -3.45346e-007 -0.0001 12.643 3.4389 -6.87214e-008 -30.22 6.80217e-008 2.2603 21.606 7.4023 -1.51744 -14.3853 11.3586 13.5163 -1.1332 -5.0146 92.1659 -51.2892 11.3671 -0.0995 -28.05 -0.2431 15.4382 -43.9258 14.6308 0.0679 -23.3996 -0.1402 55.9091 2.9358 9.42318 0.7932 -9.06901 2.5189 -2.49932e-006 -5.38581e-006 5.70982e-006 -0.8272 -3.3923 0.5977 0 0 -3.97569e-016 -0.5649 -2.3158 0.4082 0 0 -1.59028e-015 0.915899 -9.20441 0.2193 -2.49932e-006 -5.38581e-006 5.70982e-006 0.0117 -4.1944 -0.0248 -0.012829 0.00231768 7.48952e-005 0.0071 -2.3249 -0.0142 -3.18055e-015 3.18055e-015 2.38542e-015 0.6113 -8.72311 -2.0637 -2.49932e-006 -5.38581e-006 5.70982e-006 -0.1927 -3.8059 -0.2383 -0.016068 0.00298741 0.000846129 -0.1091 -2.1688 -0.1362 -6.1863e-006 4.92784e-006 1.22424e-005 -0.6151 -8.09471 -3.5641 -2.49932e-006 -5.38581e-006 5.70982e-006 -0.4882 -2.341 -0.6462 -0.0126155 0.00312828 0.00283101 -0.3575 -1.7167 -0.4742 -1.54487e-031 3.18055e-015 2.78299e-015 -1.42 -1.8761 1.4223 -2.49932e-006 -5.38581e-006 5.70982e-006 -1.1471 -3.4929 2.6334 0 0 -3.97569e-016 -0.823 -2.3 1.6571 0 0 -1.59028e-015 -2.2603 21.606 7.4023 0.396173 -14.1357 -14.45 -13.5187 -1.1334 -5.0155 -89.9863 -53.5211 -10.5296 0.0994 -28.0499 -0.2431 -21.3275 -51.2192 -19.5781 -0.0679 -23.3996 -0.1402 -55.5429 7.74972 -3.35293 -0.7932 -9.06911 2.5189 2.20695e-032 -3.18055e-015 3.97569e-016 0.8272 -3.3923 0.5977 -0 -3.18055e-015 -0 0.565 -2.3158 0.4082 1.59028e-015 -3.18055e-015 7.95139e-016 -0.916 -9.20441 0.2193 2.20695e-032 -3.18055e-015 3.97569e-016 -0.0117 -4.1944 -0.0248 0.0129489 0.00231054 -8.4013e-005 -0.0071 -2.3249 -0.0142 1.59028e-015 -6.36111e-015 -1.19271e-014 -0.6113 -8.72311 -2.0637 2.20695e-032 -3.18055e-015 3.97569e-016 0.1927 -3.8059 -0.2383 0.0163121 0.00304517 -0.00088159 0.1091 -2.1688 -0.1362 1.59028e-015 3.18055e-015 -1.19271e-015 0.6151 -8.09471 -3.564 2.20695e-032 -3.18055e-015 3.97569e-016 0.4882 -2.341 -0.6462 0.0145794 0.00368229 -0.00327022 0.3574 -1.7166 -0.4742 3.18055e-015 2.22639e-014 -1.19271e-015 1.4199 -1.8761 1.4221 2.20695e-032 -3.18055e-015 3.97569e-016 1.1472 -3.4929 2.6336 -0 -3.18055e-015 -0 0.8229 -2.3 1.6571 1.59028e-015 -3.18055e-015 7.95139e-016 -9.412 3.9771 -0.7758 -46.2819 -28.0466 -62.1583 -0.7531 -40.938 0 -32.3011 69.3404 -12.0734 0 -40.1986 -7.10543e-015 -21.2815 39.6362 28.6263 -1.77636e-015 -4.4182 9.239 1.29431e-005 2.18032e-006 -2.23689e-006 9.4119 3.9773 -0.7758 46.266 -28.053 62.1328 0.7532 -40.9383 0 32.2558 69.3446 12.1036 0 -40.1986 0 21.2538 39.6542 -28.5981 -1.77636e-015 -4.4182 9.239 -3.30524e-006 -1.23941e-006 1.60202e-006 
